<svg width="208" height="48" viewBox="0 0 208 48" fill="none" xmlns="http://www.w3.org/2000/svg">
<path d="M7.04638 11.232V14.736C8.82238 11.904 11.6064 10.464 15.3984 10.464C18.8544 10.464 21.5904 11.664 23.6064 13.968C25.6224 16.32 26.6784 19.488 26.6784 23.472C26.6784 27.504 25.6704 30.672 23.6544 33.072C21.6384 35.472 18.9504 36.624 15.5904 36.624C12.0384 36.624 9.25438 35.28 7.28638 32.544V45.552H3.20638V11.232H7.04638ZM14.7744 13.872C12.3744 13.872 10.5024 14.736 9.15838 16.464C7.81438 18.192 7.14238 20.544 7.14238 23.52C7.14238 26.544 7.81438 28.896 9.20638 30.624C10.5984 32.352 12.5184 33.216 14.9184 33.216C17.2224 33.216 19.0944 32.352 20.4384 30.624C21.7824 28.896 22.4544 26.544 22.4544 23.568C22.4544 20.544 21.7344 18.192 20.3904 16.464C19.0464 14.736 17.1744 13.872 14.7744 13.872ZM45.0515 10.656L45.0035 14.928C44.7155 14.88 44.3795 14.88 43.9475 14.88C42.6515 14.88 41.4995 15.072 40.5395 15.456C39.5795 15.84 38.8595 16.368 38.2835 16.992C37.7075 17.664 37.2755 18.432 36.8915 19.392C36.5555 20.352 36.3155 21.312 36.2195 22.272C36.1235 23.232 36.0755 24.336 36.0755 25.536V36H31.9955V11.232H35.8835V16.56C37.5155 12.624 40.5395 10.656 45.0515 10.656ZM98.906 18.432H94.826C94.538 15.456 92.522 13.92 88.778 13.92C87.194 13.92 85.946 14.256 85.082 14.832C84.17 15.456 83.738 16.272 83.738 17.28C83.738 17.568 83.738 17.856 83.834 18.144C83.882 18.432 83.978 18.672 84.17 18.864C84.362 19.056 84.506 19.248 84.65 19.392C84.794 19.584 85.034 19.728 85.37 19.872C85.706 20.016 85.946 20.112 86.138 20.208C86.33 20.304 86.618 20.448 87.098 20.544C87.578 20.64 87.914 20.736 88.106 20.784C88.298 20.832 88.634 20.928 89.21 21.024C89.786 21.168 90.122 21.264 90.314 21.264C91.466 21.552 92.378 21.744 92.954 21.888C93.53 22.08 94.346 22.368 95.402 22.8C96.458 23.232 97.226 23.664 97.802 24.144C98.33 24.624 98.81 25.248 99.242 26.064C99.674 26.88 99.914 27.792 99.914 28.8C99.914 31.2 98.954 33.168 97.082 34.608C95.21 36.048 92.714 36.768 89.642 36.768C86.282 36.768 83.69 36.048 81.866 34.56C80.042 33.12 79.082 30.96 78.986 28.176H83.018C83.21 31.68 85.466 33.408 89.738 33.408C91.562 33.408 93.002 33.072 94.106 32.304C95.21 31.536 95.786 30.528 95.786 29.28C95.786 28.464 95.498 27.792 94.922 27.216C94.346 26.688 93.674 26.304 93.002 26.064C92.282 25.824 91.274 25.536 89.978 25.2C89.786 25.2 89.642 25.152 89.546 25.104C89.258 25.056 88.634 24.912 87.674 24.72C86.714 24.528 86.042 24.336 85.658 24.192C85.226 24.096 84.602 23.904 83.834 23.616C83.066 23.328 82.49 23.04 82.106 22.752C81.722 22.464 81.29 22.08 80.81 21.6C80.33 21.12 80.042 20.592 79.85 19.968C79.658 19.344 79.562 18.624 79.562 17.808C79.562 15.6 80.378 13.824 82.106 12.48C83.834 11.184 86.138 10.512 89.018 10.512C91.898 10.512 94.298 11.232 96.122 12.576C97.946 13.968 98.906 15.936 98.906 18.432ZM109.322 1.824V6.816H105.194V1.824H109.322ZM109.322 11.232V36H105.194V11.232H109.322ZM137.579 11.232V33.36C137.579 35.472 137.435 37.152 137.243 38.304C137.003 39.456 136.571 40.56 135.947 41.568C134.123 44.592 130.859 46.08 126.155 46.08C123.371 46.08 121.019 45.552 119.099 44.4C117.179 43.248 116.075 41.376 115.739 38.784H119.915C120.395 41.568 122.555 42.912 126.299 42.912C128.843 42.912 130.667 42.288 131.819 40.992C132.971 39.744 133.547 37.68 133.643 34.8L133.691 31.776C132.107 34.8 129.467 36.288 125.771 36.288C122.459 36.288 119.819 35.184 117.851 32.88C115.883 30.624 114.875 27.552 114.875 23.712C114.875 20.112 115.883 17.04 117.803 14.448C119.771 11.856 122.507 10.56 126.011 10.56C127.739 10.56 129.275 10.944 130.619 11.664C131.963 12.432 133.067 13.488 133.835 14.832V11.232H137.579ZM126.203 14.16C123.995 14.16 122.219 14.976 120.971 16.704C119.723 18.432 119.099 20.784 119.099 23.808C119.099 26.496 119.723 28.704 121.067 30.336C122.363 31.968 124.091 32.832 126.299 32.832C128.555 32.832 130.331 31.968 131.627 30.24C132.923 28.512 133.595 26.112 133.595 23.136C133.595 20.304 132.923 18.096 131.627 16.512C130.331 14.928 128.507 14.16 126.203 14.16ZM148.245 1.824V14.736C150.069 12 152.757 10.608 156.357 10.608C161.925 10.608 164.709 13.44 164.709 19.056V36H160.629V20.016C160.629 18.144 160.197 16.704 159.429 15.696C158.661 14.688 157.221 14.16 155.205 14.16C152.709 14.16 150.885 14.976 149.829 16.56C148.773 18.192 148.245 20.448 148.245 23.424V36H144.165V1.824H148.245ZM181.925 11.232V14.592H176.981V29.04C176.981 29.856 176.981 30.384 176.981 30.624C176.981 30.912 177.077 31.248 177.269 31.68C177.413 32.112 177.701 32.4 178.085 32.496C178.469 32.64 178.997 32.688 179.717 32.688C180.293 32.688 181.061 32.64 181.925 32.544V36.048C180.773 36.192 179.717 36.24 178.805 36.24C177.653 36.24 176.693 36.144 175.925 35.856C175.157 35.616 174.533 35.328 174.149 34.992C173.765 34.704 173.477 34.128 173.285 33.312C173.093 32.496 172.949 31.824 172.949 31.248C172.901 30.672 172.901 29.76 172.901 28.416V28.224V27.984V27.744V14.592H168.725V11.232H172.901V3.888H176.981V11.232H181.925ZM205.322 18.432H201.242C200.954 15.456 198.938 13.92 195.194 13.92C193.61 13.92 192.362 14.256 191.498 14.832C190.586 15.456 190.154 16.272 190.154 17.28C190.154 17.568 190.154 17.856 190.25 18.144C190.298 18.432 190.394 18.672 190.586 18.864C190.778 19.056 190.922 19.248 191.066 19.392C191.21 19.584 191.45 19.728 191.786 19.872C192.122 20.016 192.362 20.112 192.554 20.208C192.746 20.304 193.034 20.448 193.514 20.544C193.994 20.64 194.33 20.736 194.522 20.784C194.714 20.832 195.05 20.928 195.626 21.024C196.202 21.168 196.538 21.264 196.73 21.264C197.882 21.552 198.794 21.744 199.37 21.888C199.946 22.08 200.762 22.368 201.818 22.8C202.874 23.232 203.642 23.664 204.218 24.144C204.746 24.624 205.226 25.248 205.658 26.064C206.09 26.88 206.33 27.792 206.33 28.8C206.33 31.2 205.37 33.168 203.498 34.608C201.626 36.048 199.13 36.768 196.058 36.768C192.698 36.768 190.106 36.048 188.282 34.56C186.458 33.12 185.498 30.96 185.402 28.176H189.434C189.626 31.68 191.882 33.408 196.154 33.408C197.978 33.408 199.418 33.072 200.522 32.304C201.626 31.536 202.202 30.528 202.202 29.28C202.202 28.464 201.914 27.792 201.338 27.216C200.762 26.688 200.09 26.304 199.418 26.064C198.698 25.824 197.69 25.536 196.394 25.2C196.202 25.2 196.058 25.152 195.962 25.104C195.674 25.056 195.05 24.912 194.09 24.72C193.13 24.528 192.458 24.336 192.074 24.192C191.642 24.096 191.018 23.904 190.25 23.616C189.482 23.328 188.906 23.04 188.522 22.752C188.138 22.464 187.706 22.08 187.226 21.6C186.746 21.12 186.458 20.592 186.266 19.968C186.074 19.344 185.978 18.624 185.978 17.808C185.978 15.6 186.794 13.824 188.522 12.48C190.25 11.184 192.554 10.512 195.434 10.512C198.314 10.512 200.714 11.232 202.538 12.576C204.362 13.968 205.322 15.936 205.322 18.432Z" fill="black"/>
<path d="M61.5 9C69.5081 9 76 15.4919 76 23.5C76 31.5081 69.5081 38 61.5 38C57.9953 38 54.7812 36.7563 52.2744 34.6865L57.8984 32.292C59.0093 32.7475 60.225 33 61.5 33C66.7467 33 71 28.7467 71 23.5C71 18.2533 66.7467 14 61.5 14C56.2533 14 52 18.2533 52 23.5C52 25.8855 52.881 28.064 54.333 29.7324L52.2373 34.6553C49.0377 31.9955 47 27.986 47 23.5C47 15.4919 53.4919 9 61.5 9Z" fill="url(#paint0_linear_12809_898)"/>
<defs>
<linearGradient id="paint0_linear_12809_898" x1="61.5" y1="9" x2="61.5" y2="38" gradientUnits="userSpaceOnUse">
<stop stop-color="#90C1F5"/>
<stop offset="1" stop-color="#037DFE"/>
</linearGradient>
</defs>
</svg>
