<?xml version="1.0" encoding="UTF-8"?>
<svg version="1.1" xmlns="http://www.w3.org/2000/svg" width="512" height="512">
<path d="M0 0 C1.70939841 1.00633939 3.41880759 2.012661 5.12884521 3.01791382 C6.88771134 4.05366605 8.64373532 5.09410976 10.39941406 6.13525391 C15.86254051 9.36890211 21.37144447 12.52335208 26.875 15.6875 C29.04187281 16.93714262 31.20853906 18.18714347 33.375 19.4375 C34.4475 20.05625 35.52 20.675 36.625 21.3125 C41.5 24.125 41.5 24.125 46.375 26.9375 C47.44766113 27.55633057 48.52032227 28.17516113 49.62548828 28.81274414 C51.79057071 30.06185518 53.95560982 31.31104129 56.12060547 32.56030273 C61.56115706 35.69952309 67.00247216 38.83740563 72.4453125 41.97265625 C85.09977209 49.26386061 97.74027623 56.57797052 110.34375 63.95703125 C113.85537664 66.01257309 117.37523466 68.05217832 120.90625 70.07421875 C121.67767334 70.51918701 122.44909668 70.96415527 123.24389648 71.42260742 C124.63850133 72.22677522 126.03613705 73.02572665 127.43774414 73.81762695 C133.54267807 77.35523584 139.213694 81.53188654 143.125 87.5 C143.58390625 88.17675781 144.0428125 88.85351562 144.515625 89.55078125 C149.43255775 99.08793529 149.30972422 108.11592721 149.27905273 118.55810547 C149.28476189 120.31496615 149.29172825 122.07182313 149.29985046 123.82867432 C149.31773767 128.58084836 149.31662175 133.3328373 149.31090808 138.08503485 C149.30780951 142.06098821 149.31391617 146.03690636 149.31994683 150.0128547 C149.33397615 159.39743444 149.33244429 168.78192313 149.32104492 178.16650391 C149.30956769 187.82832287 149.3236364 197.48986412 149.3504414 207.15164649 C149.37263752 215.46532668 149.37922689 223.77891995 149.37336498 232.09262764 C149.37000327 237.04991631 149.37235799 242.00702704 149.38961601 246.96429062 C149.40514533 251.62823425 149.40106352 256.29176831 149.38231087 260.95569611 C149.37864138 262.66039327 149.38168524 264.36512118 149.39219666 266.06978989 C149.46437189 278.74968217 148.06844884 288.75429938 140.046875 299.01953125 C133.60934589 305.44548207 125.7356734 309.74132493 117.875 314.1875 C116.1311678 315.18325595 114.38734263 316.17902463 112.64407349 317.17576599 C111.45731817 317.85409678 110.27020309 318.53179855 109.08273315 319.20887756 C103.36327206 322.47146062 97.6805969 325.79539038 92 329.125 C82.73051969 334.54758443 73.41667313 339.88955448 64.08654785 345.20672607 C55.949299 349.84525289 47.8353364 354.52137234 39.75 359.25 C27.15494428 366.61481635 14.53438926 373.93375481 1.875 381.1875 C0.9576709 381.7148877 0.0403418 382.24227539 -0.90478516 382.78564453 C-3.36927887 384.1989891 -5.83950038 385.60160553 -8.3125 387 C-9.0122998 387.40250977 -9.71209961 387.80501953 -10.43310547 388.21972656 C-17.09519935 391.95312136 -23.18349938 393.48649703 -30.875 393.5625 C-32.16921875 393.59085937 -33.4634375 393.61921875 -34.796875 393.6484375 C-45.24624098 393.01072874 -54.39730898 387.04248993 -63.1875 381.875 C-64.41666274 381.16134233 -65.64632822 380.44854993 -66.87646484 379.73657227 C-69.39927697 378.27481152 -71.91928989 376.80840094 -74.43701172 375.33789062 C-78.96329577 372.69564735 -83.5060633 370.08222296 -88.04858398 367.46801758 C-91.26592438 365.61583252 -94.48097663 363.75973747 -97.6953125 361.90234375 C-104.17010022 358.16098344 -110.64736343 354.42392517 -117.125 350.6875 C-119.2916775 349.43751878 -121.45834417 348.18751879 -123.625 346.9375 C-124.6975 346.31875 -125.77 345.7 -126.875 345.0625 C-131.75 342.25 -131.75 342.25 -136.625 339.4375 C-138.2349585 338.50877075 -138.2349585 338.50877075 -139.87744141 337.5612793 C-142.03618703 336.31572429 -144.19471701 335.06979546 -146.35302734 333.82348633 C-151.88914426 330.62732156 -157.42927343 327.43845894 -162.9765625 324.26171875 C-169.37399954 320.59524689 -175.75649931 316.90399913 -182.125 313.1875 C-182.97465332 312.6934668 -183.82430664 312.19943359 -184.69970703 311.69042969 C-196.87661887 304.56064306 -206.13343948 297.4624996 -210.67488384 283.49647617 C-211.29941167 280.29281451 -211.26151795 277.2111391 -211.27217102 273.94700623 C-211.27584771 273.21631033 -211.2795244 272.48561442 -211.2833125 271.73277622 C-211.29432881 269.28335084 -211.29818973 266.83396791 -211.30200195 264.38452148 C-211.30826828 262.62840135 -211.31491523 260.87228253 -211.32191467 259.11616516 C-211.34294169 253.34698406 -211.35331747 247.57780274 -211.36328125 241.80859375 C-211.36732966 239.82024687 -211.3714466 237.83190014 -211.37563133 235.84355354 C-211.39468195 226.49913362 -211.40891188 217.15472159 -211.4172433 207.81028599 C-211.4270082 197.0367967 -211.45330879 186.26351329 -211.49374419 175.49009651 C-211.52394903 167.15530395 -211.53871642 158.82057024 -211.54202431 150.48572403 C-211.54437028 145.5115683 -211.55327137 140.53763253 -211.57848549 135.56353569 C-211.60184697 130.87917398 -211.60596709 126.19517577 -211.59572411 121.5107708 C-211.59523055 119.79800199 -211.60149732 118.0852148 -211.61528015 116.37250137 C-211.71345984 103.44141503 -210.34632335 92.68280134 -201.5859375 82.5625 C-196.68881338 77.83638657 -190.9834993 74.55916415 -185.125 71.1875 C-183.66126953 70.34058594 -183.66126953 70.34058594 -182.16796875 69.4765625 C-175.66983598 65.72554454 -169.15107032 62.0120862 -162.62387085 58.31199646 C-156.3981717 54.78037376 -150.1971244 51.20650401 -144 47.625 C-142.93620117 47.01060059 -141.87240234 46.39620117 -140.77636719 45.76318359 C-138.63172653 44.52444071 -136.48719494 43.28550896 -134.34277344 42.04638672 C-128.93829355 38.92425395 -123.53152588 35.80608796 -118.125 32.6875 C-115.9583225 31.43751878 -113.79165583 30.18751879 -111.625 28.9375 C-107.29166667 26.4375 -102.95833333 23.9375 -98.625 21.4375 C-97.5510498 20.81786377 -96.47709961 20.19822754 -95.37060547 19.55981445 C-93.21876086 18.31846525 -91.06674452 17.07741371 -88.91455078 15.83666992 C-83.86947938 12.92769997 -78.82611579 10.01589477 -73.78900146 7.09317017 C-72.00819999 6.0600706 -70.22684142 5.02793829 -68.4453125 3.99609375 C-66.21242917 2.70243912 -63.9805909 1.40697836 -61.75 0.109375 C-38.84342793 -13.15079077 -22.90573756 -13.75481015 0 0 Z M-39.07421875 19.75 C-40.53045654 20.5699646 -40.53045654 20.5699646 -42.01611328 21.40649414 C-43.0420459 21.99422607 -44.06797852 22.58195801 -45.125 23.1875 C-46.65809814 24.05459595 -46.65809814 24.05459595 -48.22216797 24.93920898 C-51.54942283 26.82502712 -54.86921073 28.72345319 -58.1875 30.625 C-59.4171337 31.3287318 -60.64678909 32.03242568 -61.87646484 32.73608398 C-73.23588594 39.23945756 -84.57393155 45.77983639 -95.90722656 52.32861328 C-101.31170645 55.45074605 -106.71847412 58.56891204 -112.125 61.6875 C-114.2916775 62.93748122 -116.45834417 64.18748121 -118.625 65.4375 C-131.625 72.9375 -131.625 72.9375 -134.88012695 74.81494141 C-137.03030118 76.05576875 -139.17988581 77.29761837 -141.32885742 78.54052734 C-146.38796321 81.46493259 -151.452295 84.37880633 -156.5383606 87.25604248 C-158.93147214 88.61069433 -161.32119932 89.97125513 -163.71069336 91.33227539 C-165.39175625 92.28653349 -167.0776544 93.23225775 -168.76367188 94.17773438 C-177.24335545 98.78777821 -177.24335545 98.78777821 -183.125 106.1875 C-183.22816394 108.41854985 -183.26455174 110.65276396 -183.27217102 112.88618469 C-183.27584771 113.58265317 -183.2795244 114.27912164 -183.2833125 114.99669522 C-183.29436894 117.34196108 -183.29819647 119.68718266 -183.30200195 122.0324707 C-183.30826509 123.7093622 -183.31491176 125.3862523 -183.32191467 127.06314087 C-183.33933751 131.62725735 -183.34987979 136.19136334 -183.3581202 140.75550485 C-183.36326732 143.60556677 -183.36934316 146.45562543 -183.37563133 149.30568504 C-183.39468643 158.21867904 -183.40891726 167.13166472 -183.4172433 176.04467517 C-183.42701989 186.34112437 -183.45334904 196.63735882 -183.49374419 206.93373233 C-183.52387886 214.88707773 -183.53870963 222.84036147 -183.54202431 230.79376286 C-183.54437771 235.5464312 -183.55337565 240.29887021 -183.57848549 245.05147743 C-183.60172516 249.52239756 -183.60601609 253.9929367 -183.59572411 258.46390152 C-183.59522764 260.10501178 -183.60158062 261.74614053 -183.61528015 263.38719368 C-183.63293904 265.62787588 -183.62592404 267.86718186 -183.61274719 270.10786438 C-183.61513555 271.36167058 -183.6175239 272.61547678 -183.61998463 273.90727711 C-183.03245685 277.80077596 -181.85767466 279.40720663 -179.125 282.1875 C-176.50547289 284.05232217 -176.50547289 284.05232217 -173.5234375 285.6484375 C-172.40694824 286.27693604 -171.29045898 286.90543457 -170.14013672 287.55297852 C-168.92678209 288.22286299 -167.71340252 288.89270229 -166.5 289.5625 C-165.2377888 290.2695836 -163.97624236 290.97785506 -162.71533203 291.68725586 C-160.12087379 293.14629202 -157.52410164 294.6010769 -154.92578125 296.05322266 C-149.25246886 299.23091625 -143.62694011 302.49111775 -138 305.75 C-135.85166585 306.99106434 -133.70322825 308.23194962 -131.5546875 309.47265625 C-130.49475586 310.08512207 -129.43482422 310.69758789 -128.34277344 311.32861328 C-124.02252357 313.82439344 -119.70077013 316.31756297 -115.37890625 318.81054688 C-112.13003504 320.68459563 -108.88142368 322.55909428 -105.6328125 324.43359375 C-101.27434612 326.94819436 -96.91487809 329.46104661 -92.5546875 331.97265625 C-82.84947416 337.56476959 -73.14855616 343.16344708 -63.47705078 348.8137207 C-61.43762851 350.00453401 -59.39697206 351.1932366 -57.35498047 352.37963867 C-53.14373929 354.82751561 -48.94363593 357.2839847 -44.796875 359.83984375 C-44.16362305 360.22277588 -43.53037109 360.60570801 -42.87792969 361.00024414 C-41.28630255 361.96475245 -39.70502426 362.94628699 -38.125 363.9296875 C-34.28609698 365.53922757 -31.17137003 366.0165428 -27.125 365.1875 C-23.42260902 363.64057974 -20.05556762 361.63410877 -16.625 359.5625 C-15.1232019 358.68440674 -15.1232019 358.68440674 -13.59106445 357.78857422 C-11.48169686 356.55322129 -9.37669129 355.3103932 -7.27587891 354.06054688 C-4.26008206 352.26779983 -1.2328601 350.49672329 1.80078125 348.734375 C5.77618094 346.42480987 9.7473673 344.10830643 13.71484375 341.78515625 C23.31442238 336.17071325 32.95635951 330.6294968 42.59277344 325.07861328 C49.10087919 321.32885226 55.60626435 317.57437124 62.11132812 313.81933594 C67.59984246 310.65161293 73.09066785 307.48802284 78.5859375 304.33203125 C85.02449293 300.63240792 91.45369872 296.91698688 97.875 293.1875 C98.87547363 292.60742188 99.87594727 292.02734375 100.90673828 291.4296875 C103.71451867 289.79620544 106.51473484 288.15056331 109.3125 286.5 C110.55555908 285.77840698 110.55555908 285.77840698 111.82373047 285.04223633 C112.96092529 284.36584106 112.96092529 284.36584106 114.12109375 283.67578125 C114.77779053 283.28946533 115.4344873 282.90314941 116.11108398 282.50512695 C118.28960418 280.87779498 119.46451828 279.53371968 120.875 277.1875 C121.32724828 273.94002106 121.32724828 273.94002106 121.25595093 270.24830627 C121.2606309 269.55012895 121.26531087 268.85195163 121.27013266 268.13261741 C121.2820977 265.79337782 121.27261985 263.45472245 121.26318359 261.11547852 C121.26724867 259.43828998 121.2725902 257.76110412 121.27911377 256.08392334 C121.29280182 251.52811799 121.28748231 246.97251623 121.27797651 242.41670728 C121.27038638 237.65043412 121.27742385 232.8841785 121.28213501 228.11790466 C121.28759497 220.11234403 121.28039518 212.10686639 121.26611328 204.10131836 C121.24979188 194.84566802 121.2550706 185.59021599 121.2715925 176.33457047 C121.28520715 168.38966187 121.28712696 160.44481296 121.27927649 152.49989647 C121.27459914 147.7540286 121.27397671 143.00825393 121.28388596 138.26239204 C121.29255283 133.79967089 121.28653883 129.33720528 121.26920319 124.87451172 C121.26523661 123.23664207 121.26637533 121.59875091 121.27299118 119.96088982 C121.28119036 117.72486208 121.27090554 115.48965296 121.25595093 113.25367737 C121.25481985 112.00246881 121.25368877 110.75126024 121.25252342 109.46213627 C120.84220875 105.90306886 120.00026459 104.03893358 117.875 101.1875 C115.75110945 99.5030215 115.75110945 99.5030215 113.24609375 98.1640625 C112.30717285 97.62595947 111.36825195 97.08785645 110.40087891 96.53344727 C109.38171387 95.96553467 108.36254883 95.39762207 107.3125 94.8125 C106.24692871 94.205271 105.18135742 93.59804199 104.08349609 92.97241211 C101.82475111 91.68544509 99.56328239 90.40324844 97.29931641 89.12548828 C92.92186275 86.64807297 88.56821913 84.13067204 84.21508789 81.61083984 C80.96084752 79.72733919 77.70354926 77.84923412 74.4453125 75.97265625 C67.92013757 72.21394619 61.3973655 68.4510825 54.875 64.6875 C52.70834417 63.43748121 50.5416775 62.18748122 48.375 60.9375 C44.04166667 58.4375 39.70833333 55.9375 35.375 53.4375 C34.30161377 52.8182666 33.22822754 52.1990332 32.12231445 51.56103516 C29.96450197 50.31608718 27.80678647 49.0709711 25.64916992 47.82568359 C20.09783408 44.62197349 14.54463459 41.4215637 8.98828125 38.2265625 C7.29239868 37.25033936 7.29239868 37.25033936 5.56225586 36.25439453 C3.33881011 34.97498431 1.11438613 33.6972724 -1.11108398 32.42138672 C-6.4088884 29.37465062 -11.64297565 26.26501701 -16.80493164 22.99389648 C-24.73789773 18.01560276 -30.35342594 14.79913754 -39.07421875 19.75 Z " fill="#5D4DFF" transform="translate(287.125,58.8125)"/>
<path d="M0 0 C1.58748859 -0.00378736 3.17497386 -0.00929083 4.76245117 -0.01637268 C9.05577347 -0.030288 13.34869326 -0.01918631 17.64199305 -0.00266147 C22.14218081 0.01122755 26.64234612 0.00472476 31.14254761 0.00120544 C38.69633443 -0.00149308 46.24996201 0.01195002 53.80371094 0.03515625 C62.53116221 0.06178301 71.25834766 0.06350564 79.98582566 0.05176789 C88.39214416 0.04098274 96.7983667 0.04718172 105.20467758 0.06132317 C108.77791493 0.06707463 112.35108186 0.06700694 115.92432022 0.06225777 C120.13185711 0.05747951 124.33910344 0.06762467 128.54658508 0.08921242 C130.08889155 0.0947682 131.63122601 0.09525668 133.17353439 0.09025955 C135.28203587 0.08428547 137.38965525 0.09685089 139.49807739 0.11402893 C140.67679979 0.11645883 141.85552219 0.11888872 143.06996346 0.12139225 C148.22129744 0.7249554 151.41529186 2.64111071 155.12841797 6.18920898 C157.71557242 10.10690001 158.61287492 12.83773807 158.31591797 17.50170898 C157.40142317 21.91374529 156.05843158 24.77775822 152.81591797 27.93920898 C148.67879051 30.52491365 145.52376178 30.63190145 140.73149109 30.64888 C139.72331706 30.65439504 139.72331706 30.65439504 138.69477588 30.66002148 C136.43786697 30.67105313 134.1810041 30.67490125 131.92407227 30.67871094 C130.30776829 30.68497592 128.69146575 30.69162275 127.07516479 30.69862366 C121.76349897 30.71966006 116.45183286 30.73002476 111.14013672 30.73999023 C109.31171974 30.74403776 107.48330291 30.74815469 105.65488625 30.75234032 C97.06599285 30.77139004 88.47710806 30.78562226 79.8881976 30.79395229 C69.97210814 30.80372823 60.0562417 30.83005794 50.14023083 30.87045318 C42.4764438 30.90060283 34.81272073 30.91542002 27.14887553 30.9187333 C22.57112632 30.92108486 17.99361542 30.93005923 13.41592979 30.95519447 C9.10914424 30.97846051 4.80275418 30.98271445 0.49592209 30.97243309 C-1.0834923 30.97193728 -2.66292607 30.97827113 -4.24228096 30.99198914 C-6.40156219 31.00969284 -8.55942167 31.00261124 -10.71870422 30.98945618 C-11.92604375 30.99184453 -13.13338327 30.99423288 -14.37730885 30.99669361 C-19.18442961 30.27712479 -22.31846731 28.05568435 -25.49658203 24.43920898 C-27.9340093 20.46235396 -28.05892602 17.07480565 -27.68408203 12.50170898 C-26.27959947 7.70678763 -24.78370423 5.23650778 -20.56082153 2.41465759 C-14.11682817 -0.68912856 -6.98561178 -0.04752778 0 0 Z " fill="#5D4DFF" transform="translate(206.68408203125,303.498291015625)"/>
<path d="M0 0 C0.66989018 -0.00538554 1.33978035 -0.01077108 2.02997023 -0.01631981 C4.26158969 -0.03056074 6.49261273 -0.02350563 8.72425842 -0.01637268 C10.32953364 -0.02207829 11.9348048 -0.0290433 13.54006958 -0.03717041 C17.89134382 -0.05509584 22.24241633 -0.05393461 26.59371638 -0.04822803 C30.2294076 -0.04513529 33.86506012 -0.05122957 37.50074583 -0.05726677 C46.07918909 -0.07130836 54.65753276 -0.06975375 63.23597717 -0.05836487 C72.07928112 -0.04688363 80.9222818 -0.0609602 89.76554579 -0.08776134 C97.36488571 -0.10992832 104.96413051 -0.11655348 112.56350046 -0.11068493 C117.09929166 -0.10731658 121.63488845 -0.10972233 126.17065239 -0.12693596 C130.43648119 -0.14241898 134.70186119 -0.1384347 138.96767235 -0.11963081 C140.53052943 -0.11594868 142.09341986 -0.1190425 143.65624619 -0.1295166 C158.34815862 -0.22044232 158.34815862 -0.22044232 164.09950256 4.38768005 C167.26418319 8.1852968 168.25781388 12.4893416 168.09950256 17.38768005 C166.39195407 22.77993844 164.18465359 26.42641601 159.38684559 29.47643471 C156.31877911 30.69870932 153.74187618 30.64585575 150.43951416 30.65510559 C149.43724217 30.66190226 149.43724217 30.66190226 148.41472226 30.66883624 C146.17701025 30.68149074 143.93954131 30.67985922 141.70179749 30.6782074 C140.09681892 30.68419205 138.49184323 30.69099745 136.88687134 30.69856262 C132.52725772 30.71623752 128.1677226 30.72091866 123.80807662 30.72219419 C121.08361415 30.72361565 118.35917164 30.72788517 115.63471413 30.73318863 C106.12776548 30.75169471 96.62087293 30.75985863 87.11390686 30.75828552 C78.25588827 30.75708436 69.39811345 30.77818016 60.54015654 30.80977285 C52.93237449 30.83593847 45.32467203 30.84665268 37.71684533 30.8453747 C33.17430417 30.8448651 28.63197956 30.85054722 24.08948326 30.8717308 C19.81549271 30.89111773 15.54192515 30.89123469 11.26791954 30.87669754 C9.70183188 30.87460881 8.13571772 30.87931425 6.56967545 30.89141846 C-8.13634494 30.99769494 -8.13634494 30.99769494 -13.90049744 26.38768005 C-16.71412746 22.96760346 -17.76766298 19.21420558 -18.46299744 14.88768005 C-17.72727811 10.30987088 -16.08014633 6.78916492 -12.90049744 3.38768005 C-8.43892792 0.73767921 -5.16288121 0.01050015 0 0 Z " fill="#5D4DFF" transform="translate(196.90049743652344,165.61231994628906)"/>
<path d="M0 0 C1.74753067 -0.00856522 1.74753067 -0.00856522 3.53036499 -0.01730347 C5.44967583 -0.01898026 5.44967583 -0.01898026 7.40776062 -0.02069092 C8.7679101 -0.02531989 10.12805828 -0.03034466 11.48820496 -0.03573608 C15.18459279 -0.04885484 18.88096246 -0.05530406 22.57736993 -0.05974674 C24.88722684 -0.06267842 27.1970788 -0.06678342 29.50693321 -0.07125092 C36.73536033 -0.08492471 43.96377611 -0.09459184 51.19221526 -0.09845281 C59.53370129 -0.10293287 67.87502339 -0.12047879 76.21645957 -0.1494534 C82.66582077 -0.17107734 89.11513587 -0.18115747 95.56453294 -0.18249393 C99.41565801 -0.18354148 103.26662896 -0.18943864 107.11771584 -0.20731354 C110.74158144 -0.22380655 114.36517729 -0.22594391 117.98906708 -0.21717453 C119.94883689 -0.21603848 121.90859781 -0.22974652 123.86831665 -0.243927 C134.70719021 -0.1924874 134.70719021 -0.1924874 139.40263367 3.14044189 C143.99937831 8.2341319 144.86495901 11.54455925 144.82060242 18.30450439 C144.16155149 22.77619575 141.89203211 25.39534174 138.40263367 28.14044189 C135.07074972 30.17807958 132.4940131 30.39521069 128.61581421 30.40786743 C127.43403595 30.4163974 126.25225769 30.42492737 125.03466797 30.43371582 C123.74159225 30.43280945 122.44851654 30.43190308 121.11625671 30.43096924 C119.73787573 30.43695501 118.3594981 30.44376067 116.98112488 30.45132446 C113.2392576 30.4689885 109.49748179 30.47368005 105.75557685 30.47495604 C103.41638537 30.47637816 101.0772171 30.48064895 98.73803139 30.48595047 C90.57323863 30.50445326 82.40851115 30.51262092 74.24369812 30.51104736 C66.63988891 30.50984643 59.03636377 30.53093854 51.43262643 30.56253469 C44.89914356 30.58871342 38.36575336 30.59941397 31.83221847 30.59813654 C27.93241345 30.5976273 24.0328608 30.60328898 20.13310814 30.62449265 C16.46318634 30.64390176 12.79375692 30.64398172 9.12381744 30.62945938 C7.14158231 30.62638171 5.159347 30.64302973 3.17718506 30.66033936 C-3.62071578 30.61242671 -8.12234595 30.32274115 -13.59736633 26.14044189 C-16.76841194 22.33518716 -17.73748189 18.04448633 -17.59736633 13.14044189 C-15.90303982 7.26013224 -13.43700439 4.56851885 -8.59736633 1.14044189 C-5.46872314 0.09756083 -3.28303509 0.00962657 0 0 Z " fill="#5D4DFF" transform="translate(164.5973663330078,234.85955810546875)"/>
</svg>
