<svg xmlns="http://www.w3.org/2000/svg" viewBox="0 0 24 24" fill="#2496ED"><path d="M13.98 11.08h2.12a.19.19 0 0 0 .19-.19V9.01a.19.19 0 0 0-.19-.19h-2.12a.19.19 0 0 0-.19.19v1.88c0 .11.08.19.19.19m-2.95-5.43h2.12a.19.19 0 0 0 .19-.19V3.58a.19.19 0 0 0-.19-.19h-2.12a.19.19 0 0 0-.19.19v1.88c0 .1.09.19.19.19m0 2.71h2.12a.19.19 0 0 0 .19-.19V6.29a.19.19 0 0 0-.19-.19h-2.12a.19.19 0 0 0-.19.19v1.88c0 .11.09.19.19.19m-2.93 0h2.12a.19.19 0 0 0 .19-.19V6.29a.19.19 0 0 0-.19-.19H8.1a.19.19 0 0 0-.19.19v1.88c0 .11.08.19.19.19m-2.96 0h2.12a.19.19 0 0 0 .19-.19V6.29a.19.19 0 0 0-.19-.19H5.14a.19.19 0 0 0-.19.19v1.88c0 .11.09.19.19.19m5.89 2.72h2.12a.19.19 0 0 0 .19-.19V9.01a.19.19 0 0 0-.19-.19h-2.12a.19.19 0 0 0-.19.19v1.88c0 .11.09.19.19.19m-2.93 0h2.12a.19.19 0 0 0 .19-.19V9.01a.19.19 0 0 0-.19-.19H8.1a.19.19 0 0 0-.19.19v1.88c0 .11.08.19.19.19m-2.96 0h2.12a.19.19 0 0 0 .19-.19V9.01a.19.19 0 0 0-.19-.19H5.14a.19.19 0 0 0-.19.19v1.88c0 .11.09.19.19.19m-2.92 0h2.12a.19.19 0 0 0 .19-.19V9.01a.19.19 0 0 0-.19-.19H2.22a.19.19 0 0 0-.19.19v1.88c0 .11.08.19.19.19M23.7 11.59c-.5-.38-1.66-.52-2.55-.33-.12-.9-.58-1.69-1.13-2.33l-.39-.44-.44.38c-.56.47-.86 1.1-.98 1.77-.12.65-.04 1.26.22 1.79-.32.18-.68.33-1.01.44-.54.18-1.12.28-1.7.28H.32l-.09.55c-.14.9-.14 1.81.04 2.71v.01c.25 1.24.72 2.38 1.43 3.38 1.56 2.2 3.97 3.42 7.14 3.63.43.03.87.04 1.3.04 2.49 0 4.76-.52 6.75-1.61 1.6-.88 2.98-2.1 4.07-3.63.91-1.27 1.54-2.7 1.92-4.26h.17c1.05 0 1.7-.42 2.06-.78.24-.23.42-.5.56-.79l.08-.24z"/></svg>
